<!--
  - Copyright (c) 2024.  Yantodev - All Rights Reserved.
  - @Author  :  yantodev
  - mailto : ekocahyanto007@gmail.com
  - link : https://yantodev.github.io/
  -->

<svg xmlns="http://www.w3.org/2000/svg" xmlns:xlink="http://www.w3.org/1999/xlink" width="500" zoomAndPan="magnify" viewBox="0 0 375 93.749996" height="125" preserveAspectRatio="xMidYMid meet" version="1.0"><defs><clipPath id="babde82161"><path d="M 0.5 0 L 374.5 0 L 374.5 93.5 L 0.5 93.5 Z M 0.5 0 " clip-rule="nonzero"/></clipPath><clipPath id="49b25c1afc"><path d="M 0.5 0 L 54 0 L 54 43 L 0.5 43 Z M 0.5 0 " clip-rule="nonzero"/></clipPath><clipPath id="2ee4fb91a0"><path d="M 303.394531 62.355469 L 374.5 62.355469 L 374.5 93.5 L 303.394531 93.5 Z M 303.394531 62.355469 " clip-rule="nonzero"/></clipPath><clipPath id="d3cae48d25"><path d="M 7 1 L 9.941406 1 L 9.941406 4 L 7 4 Z M 7 1 " clip-rule="nonzero"/></clipPath><clipPath id="374b54b534"><path d="M 2 11 L 5 11 L 5 13.804688 L 2 13.804688 Z M 2 11 " clip-rule="nonzero"/></clipPath><clipPath id="f5c56bc29f"><path d="M 7 6 L 9.941406 6 L 9.941406 9 L 7 9 Z M 7 6 " clip-rule="nonzero"/></clipPath><clipPath id="a29dc95e14"><path d="M 7 11 L 9.941406 11 L 9.941406 13.804688 L 7 13.804688 Z M 7 11 " clip-rule="nonzero"/></clipPath><clipPath id="cf43d1f903"><path d="M 368 90 L 371.460938 90 L 371.460938 93 L 368 93 Z M 368 90 " clip-rule="nonzero"/></clipPath><clipPath id="1ae689404c"><path d="M 368 85 L 371.460938 85 L 371.460938 88 L 368 88 Z M 368 85 " clip-rule="nonzero"/></clipPath><clipPath id="c18ac21c2f"><path d="M 358.746094 90 L 362 90 L 362 93 L 358.746094 93 Z M 358.746094 90 " clip-rule="nonzero"/></clipPath><clipPath id="874e7e9e2a"><path d="M 358.746094 85 L 362 85 L 362 88 L 358.746094 88 Z M 358.746094 85 " clip-rule="nonzero"/></clipPath><clipPath id="0852c726b4"><path d="M 368 79 L 371.460938 79 L 371.460938 83 L 368 83 Z M 368 79 " clip-rule="nonzero"/></clipPath><clipPath id="caaac9bca5"><path d="M 368 74.800781 L 371.460938 74.800781 L 371.460938 78 L 368 78 Z M 368 74.800781 " clip-rule="nonzero"/></clipPath><clipPath id="cf64e12e6f"><path d="M 364 74.800781 L 367 74.800781 L 367 78 L 364 78 Z M 364 74.800781 " clip-rule="nonzero"/></clipPath><clipPath id="7b77ac0bf9"><path d="M 358.746094 79 L 362 79 L 362 83 L 358.746094 83 Z M 358.746094 79 " clip-rule="nonzero"/></clipPath><clipPath id="3bcd1895df"><path d="M 358.746094 74.800781 L 362 74.800781 L 362 78 L 358.746094 78 Z M 358.746094 74.800781 " clip-rule="nonzero"/></clipPath></defs><g clip-path="url(#babde82161)"><path fill="#ffffff" d="M 0.5 0 L 374.5 0 L 374.5 93.5 L 0.5 93.5 Z M 0.5 0 " fill-opacity="1" fill-rule="nonzero"/><path fill="#fff403" d="M 0.5 0 L 374.5 0 L 374.5 93.5 L 0.5 93.5 Z M 0.5 0 " fill-opacity="1" fill-rule="nonzero"/></g><g clip-path="url(#49b25c1afc)"><path fill="#004aad" d="M 43.234375 -26.167969 C 43.496094 -26.703125 43.800781 -27.210938 44.148438 -27.691406 C 45.539062 -29.394531 47.175781 -30.902344 48.632812 -32.546875 C 50.507812 -34.664062 52.085938 -36.9375 52.980469 -39.636719 C 54.941406 -45.554688 52.5 -51.976562 48.417969 -56.363281 C 46.484375 -58.441406 44.023438 -60.160156 41.28125 -60.96875 C 38.78125 -61.707031 36.011719 -61.488281 33.585938 -60.585938 C 31.214844 -59.703125 29.101562 -58.386719 27.070312 -56.890625 C 26.449219 -56.433594 25.839844 -55.96875 25.242188 -55.484375 C 25.054688 -55.496094 24.863281 -55.511719 24.675781 -55.53125 C 21.878906 -55.972656 19.175781 -56.707031 16.496094 -57.632812 C 13.671875 -58.609375 10.902344 -59.726562 8.070312 -60.679688 C 5.722656 -61.46875 3.308594 -62.117188 0.890625 -62.664062 C -1.78125 -63.273438 -4.535156 -63.707031 -7.28125 -63.738281 C -12.691406 -63.796875 -18.875 -61.753906 -21.398438 -56.5625 C -22.558594 -54.167969 -22.921875 -51.554688 -22.957031 -48.914062 C -22.984375 -46.648438 -22.683594 -44.375 -22.855469 -42.109375 C -22.867188 -41.996094 -22.875 -41.886719 -22.886719 -41.777344 C -23.011719 -41.027344 -23.203125 -40.292969 -23.464844 -39.582031 C -23.75 -38.984375 -24.089844 -38.417969 -24.472656 -37.878906 C -25.261719 -36.929688 -26.171875 -36.097656 -27.132812 -35.332031 C -31.082031 -32.339844 -35.324219 -29.71875 -38.738281 -26.082031 C -42.542969 -22.027344 -45.335938 -16.550781 -45.097656 -10.875 C -44.859375 -5.199219 -41.789062 -0.105469 -37.769531 3.742188 C -35.859375 5.570312 -33.703125 7.109375 -31.429688 8.445312 C -29.316406 9.6875 -27.125 10.796875 -25.023438 12.0625 C -24.109375 12.613281 -23.210938 13.203125 -22.351562 13.839844 C -21.367188 14.632812 -20.46875 15.507812 -19.660156 16.476562 C -19.375 16.886719 -19.125 17.3125 -18.90625 17.761719 C -18.660156 18.433594 -18.488281 19.128906 -18.371094 19.835938 C -18.128906 22.148438 -18.320312 24.484375 -18.167969 26.800781 C -17.988281 29.515625 -17.265625 32.183594 -15.824219 34.507812 C -13.230469 38.691406 -8.664062 41.21875 -3.878906 41.96875 C 1.355469 42.789062 6.726562 42.097656 11.550781 39.910156 C 16.558594 37.640625 20.570312 33.035156 21.519531 27.550781 C 22.210938 23.574219 21.601562 19.550781 22.03125 15.5625 C 22.117188 15.082031 22.234375 14.605469 22.398438 14.144531 C 22.539062 13.859375 22.699219 13.582031 22.878906 13.316406 C 23.105469 13.058594 23.351562 12.816406 23.609375 12.59375 C 24.097656 12.257812 24.613281 11.972656 25.148438 11.722656 C 27.8125 10.691406 30.71875 10.363281 33.527344 9.976562 C 35.09375 9.757812 36.664062 9.539062 38.214844 9.226562 C 39.925781 8.878906 41.539062 8.355469 43.148438 7.671875 C 46.433594 6.28125 48.917969 3.511719 49.902344 0.0742188 C 51.117188 -4.171875 49.832031 -8.425781 47.988281 -12.265625 C 46.667969 -15.007812 44.996094 -17.578125 43.765625 -20.363281 C 43.382812 -21.320312 43.070312 -22.304688 42.886719 -23.320312 C 42.84375 -23.835938 42.835938 -24.347656 42.875 -24.863281 C 42.960938 -25.308594 43.082031 -25.742188 43.234375 -26.167969 Z M -18.484375 -28.074219 C -18.476562 -28.097656 -18.46875 -28.117188 -18.460938 -28.140625 C -18.460938 -28.101562 -18.457031 -28.0625 -18.453125 -28.023438 C -18.464844 -28.039062 -18.472656 -28.058594 -18.484375 -28.074219 Z M -9.914062 31.882812 C -9.964844 31.808594 -10.015625 31.734375 -10.066406 31.660156 C -9.902344 31.875 -9.730469 32.082031 -9.558594 32.289062 C -9.679688 32.15625 -9.796875 32.019531 -9.914062 31.882812 Z M 40.476562 -42.347656 C 40.476562 -42.394531 40.480469 -42.4375 40.480469 -42.484375 C 40.527344 -42.539062 40.578125 -42.59375 40.625 -42.648438 C 40.578125 -42.546875 40.527344 -42.445312 40.476562 -42.347656 Z M 40.476562 -42.347656 " fill-opacity="1" fill-rule="nonzero"/></g><g clip-path="url(#2ee4fb91a0)"><path fill="#004aad" d="M 391.964844 100.03125 C 392.222656 99.496094 392.53125 98.992188 392.878906 98.507812 C 394.269531 96.808594 395.90625 95.296875 397.363281 93.652344 C 399.234375 91.535156 400.816406 89.265625 401.710938 86.5625 C 403.671875 80.648438 401.230469 74.222656 397.148438 69.839844 C 395.214844 67.761719 392.75 66.039062 390.011719 65.230469 C 387.511719 64.496094 384.742188 64.714844 382.316406 65.617188 C 379.941406 66.496094 377.828125 67.8125 375.800781 69.308594 C 375.179688 69.765625 374.570312 70.234375 373.972656 70.714844 C 373.785156 70.703125 373.59375 70.6875 373.40625 70.667969 C 370.605469 70.230469 367.90625 69.492188 365.222656 68.566406 C 362.402344 67.59375 359.632812 66.476562 356.800781 65.523438 C 354.449219 64.734375 352.039062 64.082031 349.621094 63.535156 C 346.949219 62.929688 344.195312 62.492188 341.449219 62.464844 C 336.039062 62.40625 329.855469 64.449219 327.332031 69.640625 C 326.171875 72.03125 325.804688 74.648438 325.773438 77.285156 C 325.746094 79.554688 326.046875 81.828125 325.871094 84.09375 C 325.863281 84.203125 325.855469 84.3125 325.84375 84.421875 C 325.714844 85.171875 325.527344 85.90625 325.261719 86.617188 C 324.980469 87.214844 324.640625 87.785156 324.257812 88.324219 C 323.46875 89.269531 322.558594 90.101562 321.59375 90.871094 C 317.648438 93.859375 313.40625 96.480469 309.992188 100.117188 C 306.1875 104.171875 303.394531 109.652344 303.632812 115.328125 C 303.871094 121 306.9375 126.097656 310.960938 129.945312 C 312.867188 131.769531 315.027344 133.3125 317.300781 134.648438 C 319.414062 135.890625 321.601562 137 323.703125 138.261719 C 324.621094 138.816406 325.519531 139.402344 326.378906 140.042969 C 327.359375 140.835938 328.261719 141.707031 329.070312 142.679688 C 329.355469 143.085938 329.605469 143.511719 329.824219 143.960938 C 330.066406 144.636719 330.242188 145.328125 330.359375 146.035156 C 330.601562 148.351562 330.410156 150.683594 330.5625 153.003906 C 330.738281 155.714844 331.464844 158.386719 332.902344 160.710938 C 335.496094 164.894531 340.0625 167.421875 344.851562 168.171875 C 350.082031 168.992188 355.457031 168.296875 360.28125 166.109375 C 365.285156 163.839844 369.296875 159.234375 370.25 153.753906 C 370.9375 149.773438 370.332031 145.753906 370.761719 141.761719 C 370.847656 141.28125 370.964844 140.808594 371.128906 140.347656 C 371.269531 140.058594 371.429688 139.785156 371.609375 139.519531 C 371.835938 139.261719 372.082031 139.019531 372.339844 138.792969 C 372.828125 138.457031 373.34375 138.171875 373.878906 137.925781 C 376.542969 136.890625 379.449219 136.566406 382.257812 136.175781 C 383.824219 135.960938 385.394531 135.738281 386.945312 135.425781 C 388.65625 135.078125 390.269531 134.554688 391.875 133.875 C 395.164062 132.480469 397.648438 129.714844 398.632812 126.277344 C 399.847656 122.03125 398.5625 117.777344 396.71875 113.9375 C 395.398438 111.191406 393.726562 108.625 392.492188 105.835938 C 392.113281 104.878906 391.796875 103.894531 391.617188 102.878906 C 391.570312 102.367188 391.566406 101.851562 391.605469 101.339844 C 391.691406 100.894531 391.8125 100.457031 391.964844 100.03125 Z M 330.246094 98.125 C 330.253906 98.105469 330.257812 98.082031 330.265625 98.058594 C 330.269531 98.101562 330.273438 98.140625 330.277344 98.179688 C 330.265625 98.160156 330.253906 98.144531 330.246094 98.125 Z M 338.816406 158.082031 C 338.765625 158.007812 338.714844 157.933594 338.664062 157.859375 C 338.828125 158.074219 338.996094 158.285156 339.171875 158.488281 C 339.050781 158.355469 338.933594 158.21875 338.816406 158.082031 Z M 389.203125 83.855469 C 389.207031 83.808594 389.207031 83.761719 389.210938 83.714844 C 389.257812 83.664062 389.308594 83.609375 389.355469 83.554688 C 389.308594 83.65625 389.257812 83.753906 389.203125 83.855469 Z M 389.203125 83.855469 " fill-opacity="1" fill-rule="nonzero"/></g><path fill="#1c3f49" d="M 3.457031 3.5625 C 2.792969 3.5625 2.242188 3.011719 2.242188 2.347656 C 2.242188 1.679688 2.792969 1.132812 3.457031 1.132812 C 4.121094 1.132812 4.671875 1.679688 4.671875 2.347656 C 4.671875 3.011719 4.121094 3.5625 3.457031 3.5625 Z M 3.457031 1.476562 C 2.976562 1.476562 2.585938 1.863281 2.585938 2.347656 C 2.585938 2.828125 2.976562 3.21875 3.457031 3.21875 C 3.9375 3.21875 4.328125 2.828125 4.328125 2.347656 C 4.328125 1.863281 3.9375 1.476562 3.457031 1.476562 Z M 3.457031 1.476562 " fill-opacity="1" fill-rule="nonzero"/><g clip-path="url(#d3cae48d25)"><path fill="#1c3f49" d="M 8.523438 3.5625 C 7.855469 3.5625 7.308594 3.011719 7.308594 2.347656 C 7.308594 1.679688 7.855469 1.132812 8.523438 1.132812 C 9.1875 1.132812 9.738281 1.679688 9.738281 2.347656 C 9.738281 3.011719 9.1875 3.5625 8.523438 3.5625 Z M 8.523438 1.476562 C 8.039062 1.476562 7.652344 1.863281 7.652344 2.347656 C 7.652344 2.828125 8.039062 3.21875 8.523438 3.21875 C 9.003906 3.21875 9.394531 2.828125 9.394531 2.347656 C 9.394531 1.863281 9.003906 1.476562 8.523438 1.476562 Z M 8.523438 1.476562 " fill-opacity="1" fill-rule="nonzero"/></g><path fill="#1c3f49" d="M 3.457031 8.695312 C 2.792969 8.695312 2.242188 8.144531 2.242188 7.480469 C 2.242188 6.816406 2.792969 6.265625 3.457031 6.265625 C 4.121094 6.265625 4.671875 6.816406 4.671875 7.480469 C 4.671875 8.144531 4.121094 8.695312 3.457031 8.695312 Z M 3.457031 6.609375 C 2.976562 6.609375 2.585938 7 2.585938 7.480469 C 2.585938 7.960938 2.976562 8.351562 3.457031 8.351562 C 3.9375 8.351562 4.328125 7.960938 4.328125 7.480469 C 4.328125 7 3.9375 6.609375 3.457031 6.609375 Z M 3.457031 6.609375 " fill-opacity="1" fill-rule="nonzero"/><g clip-path="url(#374b54b534)"><path fill="#1c3f49" d="M 3.457031 13.804688 C 2.792969 13.804688 2.242188 13.253906 2.242188 12.589844 C 2.242188 11.925781 2.792969 11.375 3.457031 11.375 C 4.121094 11.375 4.671875 11.925781 4.671875 12.589844 C 4.671875 13.253906 4.121094 13.804688 3.457031 13.804688 Z M 3.457031 11.742188 C 2.976562 11.742188 2.585938 12.132812 2.585938 12.613281 C 2.585938 13.09375 2.976562 13.484375 3.457031 13.484375 C 3.9375 13.484375 4.328125 13.09375 4.328125 12.613281 C 4.328125 12.132812 3.9375 11.742188 3.457031 11.742188 Z M 3.457031 11.742188 " fill-opacity="1" fill-rule="nonzero"/></g><g clip-path="url(#f5c56bc29f)"><path fill="#1c3f49" d="M 8.523438 8.695312 C 7.855469 8.695312 7.308594 8.144531 7.308594 7.480469 C 7.308594 6.816406 7.855469 6.265625 8.523438 6.265625 C 9.1875 6.265625 9.738281 6.816406 9.738281 7.480469 C 9.738281 8.144531 9.1875 8.695312 8.523438 8.695312 Z M 8.523438 6.609375 C 8.039062 6.609375 7.652344 7 7.652344 7.480469 C 7.652344 7.960938 8.039062 8.351562 8.523438 8.351562 C 9.003906 8.351562 9.394531 7.960938 9.394531 7.480469 C 9.394531 7 9.003906 6.609375 8.523438 6.609375 Z M 8.523438 6.609375 " fill-opacity="1" fill-rule="nonzero"/></g><g clip-path="url(#a29dc95e14)"><path fill="#1c3f49" d="M 8.523438 13.804688 C 7.855469 13.804688 7.308594 13.253906 7.308594 12.589844 C 7.308594 11.925781 7.855469 11.375 8.523438 11.375 C 9.1875 11.375 9.738281 11.925781 9.738281 12.589844 C 9.738281 13.253906 9.1875 13.804688 8.523438 13.804688 Z M 8.523438 11.742188 C 8.039062 11.742188 7.652344 12.132812 7.652344 12.613281 C 7.652344 13.09375 8.039062 13.484375 8.523438 13.484375 C 9.003906 13.484375 9.394531 13.09375 9.394531 12.613281 C 9.394531 12.132812 9.003906 11.742188 8.523438 11.742188 Z M 8.523438 11.742188 " fill-opacity="1" fill-rule="nonzero"/></g><g clip-path="url(#cf43d1f903)"><path fill="#1c3f49" d="M 370.179688 90.175781 C 370.847656 90.175781 371.394531 90.726562 371.394531 91.390625 C 371.394531 92.058594 370.847656 92.605469 370.179688 92.605469 C 369.515625 92.605469 368.96875 92.058594 368.96875 91.390625 C 368.96875 90.726562 369.515625 90.175781 370.179688 90.175781 Z M 370.179688 92.242188 C 370.664062 92.242188 371.050781 91.851562 371.050781 91.371094 C 371.050781 90.886719 370.664062 90.5 370.179688 90.5 C 369.699219 90.5 369.3125 90.886719 369.3125 91.371094 C 369.3125 91.851562 369.699219 92.242188 370.179688 92.242188 Z M 370.179688 92.242188 " fill-opacity="1" fill-rule="nonzero"/></g><g clip-path="url(#1ae689404c)"><path fill="#1c3f49" d="M 370.179688 85.042969 C 370.847656 85.042969 371.394531 85.59375 371.394531 86.257812 C 371.394531 86.921875 370.847656 87.472656 370.179688 87.472656 C 369.515625 87.472656 368.96875 86.921875 368.96875 86.257812 C 368.96875 85.59375 369.515625 85.042969 370.179688 85.042969 Z M 370.179688 87.128906 C 370.664062 87.128906 371.050781 86.738281 371.050781 86.257812 C 371.050781 85.777344 370.664062 85.386719 370.179688 85.386719 C 369.699219 85.386719 369.3125 85.777344 369.3125 86.257812 C 369.3125 86.738281 369.699219 87.128906 370.179688 87.128906 Z M 370.179688 87.128906 " fill-opacity="1" fill-rule="nonzero"/></g><path fill="#1c3f49" d="M 365.230469 90.175781 C 365.894531 90.175781 366.445312 90.726562 366.445312 91.390625 C 366.445312 92.058594 365.894531 92.605469 365.230469 92.605469 C 364.566406 92.605469 364.015625 92.058594 364.015625 91.390625 C 364.015625 90.726562 364.566406 90.175781 365.230469 90.175781 Z M 365.230469 92.242188 C 365.710938 92.242188 366.101562 91.851562 366.101562 91.371094 C 366.101562 90.886719 365.710938 90.5 365.230469 90.5 C 364.75 90.5 364.359375 90.886719 364.359375 91.371094 C 364.359375 91.851562 364.75 92.242188 365.230469 92.242188 Z M 365.230469 92.242188 " fill-opacity="1" fill-rule="nonzero"/><path fill="#1c3f49" d="M 365.230469 85.042969 C 365.894531 85.042969 366.445312 85.59375 366.445312 86.257812 C 366.445312 86.921875 365.894531 87.472656 365.230469 87.472656 C 364.566406 87.472656 364.015625 86.921875 364.015625 86.257812 C 364.015625 85.59375 364.566406 85.042969 365.230469 85.042969 Z M 365.230469 87.128906 C 365.710938 87.128906 366.101562 86.738281 366.101562 86.257812 C 366.101562 85.777344 365.710938 85.386719 365.230469 85.386719 C 364.75 85.386719 364.359375 85.777344 364.359375 86.257812 C 364.359375 86.738281 364.75 87.128906 365.230469 87.128906 Z M 365.230469 87.128906 " fill-opacity="1" fill-rule="nonzero"/><g clip-path="url(#c18ac21c2f)"><path fill="#1c3f49" d="M 360.167969 90.175781 C 360.832031 90.175781 361.382812 90.726562 361.382812 91.390625 C 361.382812 92.058594 360.832031 92.605469 360.167969 92.605469 C 359.503906 92.605469 358.953125 92.058594 358.953125 91.390625 C 358.953125 90.726562 359.503906 90.175781 360.167969 90.175781 Z M 360.167969 92.242188 C 360.648438 92.242188 361.039062 91.851562 361.039062 91.371094 C 361.039062 90.886719 360.648438 90.5 360.167969 90.5 C 359.6875 90.5 359.296875 90.886719 359.296875 91.371094 C 359.296875 91.851562 359.6875 92.242188 360.167969 92.242188 Z M 360.167969 92.242188 " fill-opacity="1" fill-rule="nonzero"/></g><g clip-path="url(#874e7e9e2a)"><path fill="#1c3f49" d="M 360.167969 85.042969 C 360.832031 85.042969 361.382812 85.59375 361.382812 86.257812 C 361.382812 86.921875 360.832031 87.472656 360.167969 87.472656 C 359.503906 87.472656 358.953125 86.921875 358.953125 86.257812 C 358.953125 85.59375 359.503906 85.042969 360.167969 85.042969 Z M 360.167969 87.128906 C 360.648438 87.128906 361.039062 86.738281 361.039062 86.257812 C 361.039062 85.777344 360.648438 85.386719 360.167969 85.386719 C 359.6875 85.386719 359.296875 85.777344 359.296875 86.257812 C 359.296875 86.738281 359.6875 87.128906 360.167969 87.128906 Z M 360.167969 87.128906 " fill-opacity="1" fill-rule="nonzero"/></g><g clip-path="url(#0852c726b4)"><path fill="#1c3f49" d="M 370.179688 79.910156 C 370.847656 79.910156 371.394531 80.460938 371.394531 81.125 C 371.394531 81.789062 370.847656 82.339844 370.179688 82.339844 C 369.515625 82.339844 368.96875 81.789062 368.96875 81.125 C 368.96875 80.460938 369.515625 79.910156 370.179688 79.910156 Z M 370.179688 81.996094 C 370.664062 81.996094 371.050781 81.605469 371.050781 81.125 C 371.050781 80.644531 370.664062 80.253906 370.179688 80.253906 C 369.699219 80.253906 369.3125 80.644531 369.3125 81.125 C 369.3125 81.605469 369.699219 81.996094 370.179688 81.996094 Z M 370.179688 81.996094 " fill-opacity="1" fill-rule="nonzero"/></g><g clip-path="url(#caaac9bca5)"><path fill="#1c3f49" d="M 370.179688 74.800781 C 370.847656 74.800781 371.394531 75.351562 371.394531 76.015625 C 371.394531 76.679688 370.847656 77.230469 370.179688 77.230469 C 369.515625 77.230469 368.96875 76.679688 368.96875 76.015625 C 368.96875 75.351562 369.515625 74.800781 370.179688 74.800781 Z M 370.179688 76.863281 C 370.664062 76.863281 371.050781 76.472656 371.050781 75.992188 C 371.050781 75.511719 370.664062 75.121094 370.179688 75.121094 C 369.699219 75.121094 369.3125 75.511719 369.3125 75.992188 C 369.3125 76.472656 369.699219 76.863281 370.179688 76.863281 Z M 370.179688 76.863281 " fill-opacity="1" fill-rule="nonzero"/></g><path fill="#1c3f49" d="M 365.230469 79.910156 C 365.894531 79.910156 366.445312 80.460938 366.445312 81.125 C 366.445312 81.789062 365.894531 82.339844 365.230469 82.339844 C 364.566406 82.339844 364.015625 81.789062 364.015625 81.125 C 364.015625 80.460938 364.566406 79.910156 365.230469 79.910156 Z M 365.230469 81.996094 C 365.710938 81.996094 366.101562 81.605469 366.101562 81.125 C 366.101562 80.644531 365.710938 80.253906 365.230469 80.253906 C 364.75 80.253906 364.359375 80.644531 364.359375 81.125 C 364.359375 81.605469 364.75 81.996094 365.230469 81.996094 Z M 365.230469 81.996094 " fill-opacity="1" fill-rule="nonzero"/><g clip-path="url(#cf64e12e6f)"><path fill="#1c3f49" d="M 365.230469 74.800781 C 365.894531 74.800781 366.445312 75.351562 366.445312 76.015625 C 366.445312 76.679688 365.894531 77.230469 365.230469 77.230469 C 364.566406 77.230469 364.015625 76.679688 364.015625 76.015625 C 364.015625 75.351562 364.566406 74.800781 365.230469 74.800781 Z M 365.230469 76.863281 C 365.710938 76.863281 366.101562 76.472656 366.101562 75.992188 C 366.101562 75.511719 365.710938 75.121094 365.230469 75.121094 C 364.75 75.121094 364.359375 75.511719 364.359375 75.992188 C 364.359375 76.472656 364.75 76.863281 365.230469 76.863281 Z M 365.230469 76.863281 " fill-opacity="1" fill-rule="nonzero"/></g><g clip-path="url(#7b77ac0bf9)"><path fill="#1c3f49" d="M 360.167969 79.910156 C 360.832031 79.910156 361.382812 80.460938 361.382812 81.125 C 361.382812 81.789062 360.832031 82.339844 360.167969 82.339844 C 359.503906 82.339844 358.953125 81.789062 358.953125 81.125 C 358.953125 80.460938 359.503906 79.910156 360.167969 79.910156 Z M 360.167969 81.996094 C 360.648438 81.996094 361.039062 81.605469 361.039062 81.125 C 361.039062 80.644531 360.648438 80.253906 360.167969 80.253906 C 359.6875 80.253906 359.296875 80.644531 359.296875 81.125 C 359.296875 81.605469 359.6875 81.996094 360.167969 81.996094 Z M 360.167969 81.996094 " fill-opacity="1" fill-rule="nonzero"/></g><g clip-path="url(#3bcd1895df)"><path fill="#1c3f49" d="M 360.167969 74.800781 C 360.832031 74.800781 361.382812 75.351562 361.382812 76.015625 C 361.382812 76.679688 360.832031 77.230469 360.167969 77.230469 C 359.503906 77.230469 358.953125 76.679688 358.953125 76.015625 C 358.953125 75.351562 359.503906 74.800781 360.167969 74.800781 Z M 360.167969 76.863281 C 360.648438 76.863281 361.039062 76.472656 361.039062 75.992188 C 361.039062 75.511719 360.648438 75.121094 360.167969 75.121094 C 359.6875 75.121094 359.296875 75.511719 359.296875 75.992188 C 359.296875 76.472656 359.6875 76.863281 360.167969 76.863281 Z M 360.167969 76.863281 " fill-opacity="1" fill-rule="nonzero"/></g></svg>
